<svg viewBox="0 0 82.04 82.04" xmlns="http://www.w3.org/2000/svg" xmlns:xlink="http://www.w3.org/1999/xlink"><pattern id="a" height="77.43" patternTransform="matrix(.65 0 0 .65 -101.9 1651.97)" patternUnits="userSpaceOnUse" viewBox="0 0 77.43 77.43" width="77.43"><path d="m0 0h77.43v77.43h-77.43z" fill="none"/><path d="m0 0h77.43v77.43h-77.43z" fill="#010101"/></pattern><pattern id="b" height="77.43" patternTransform="matrix(.65 0 0 .65 -43.2 1742.9)" patternUnits="userSpaceOnUse" viewBox="0 0 77.43 77.43" width="77.43"><path d="m0 0h77.43v77.43h-77.43z" fill="none"/><path d="m0 0h77.43v77.43h-77.43z" fill="#010101"/></pattern><clipPath id="c"><path d="m14.73 21.33 26.62-15.47 24.24 14-26.61 15.46z"/></clipPath><clipPath id="d"><path d="m49.08 20.65a17.18 17.18 0 0 0 -17.22.35c5.08-2.95 6.1-6.45.58-10a17.24 17.24 0 0 0 17.24-.37c-5.08 2.95-6.12 6.44-.6 10"/></clipPath><clipPath id="e"><path d="m48.42 29.83a12.21 12.21 0 0 0 -12.22.27c3.61-2.09 4.33-4.57.42-7.08a12.19 12.19 0 0 0 12.21-.26c-3.6 2.09-4.33 4.57-.41 7.07"/></clipPath><clipPath id="f"><path d="m35.27 27.32a9.77 9.77 0 0 0 -9.79.21c2.89-1.68 3.47-3.66.34-5.67a9.75 9.75 0 0 0 9.78-.21c-2.89 1.68-3.47 3.66-.33 5.67"/></clipPath><clipPath id="g"><path d="m47.24 72.61-.09-30.78 24.24-14 .09 30.78z"/></clipPath><clipPath id="h"><path d="m63.82 42.52a17.22 17.22 0 0 0 -8.29 15.11c0-5.88-2.53-8.51-8.35-5.5a17.24 17.24 0 0 0 8.3-15.13c0 5.87 2.52 8.51 8.34 5.5"/></clipPath><clipPath id="i"><path d="m71.45 47.7a12.16 12.16 0 0 0 -5.88 10.7c0-4.17-1.79-6-5.92-3.89a12.22 12.22 0 0 0 5.88-10.72c0 4.17 1.79 6 5.92 3.91"/></clipPath><clipPath id="j"><path d="m62.69 57.82a9.77 9.77 0 0 0 -4.69 8.58c0-3.33-1.43-4.83-4.74-3.12a9.75 9.75 0 0 0 4.74-8.58c0 3.34 1.43 4.84 4.74 3.12"/></clipPath><clipPath id="k"><path d="m10.44 58.61.09-30.78 24.23 13.99-.09 30.79z"/></clipPath><clipPath id="l"><path d="m27.13 47.74c-5.82-3-8.33-.37-8.34 5.5a17.2 17.2 0 0 0 -8.29-15.1c5.82 3 8.33.37 8.34-5.51a17.22 17.22 0 0 0 8.29 15.11"/></clipPath><clipPath id="m"><path d="m34.71 61.69c-4.13-2.14-5.91-.27-5.92 3.9a12.19 12.19 0 0 0 -5.88-10.71c4.09 2.12 5.91.27 5.92-3.88a12.19 12.19 0 0 0 5.88 10.71"/></clipPath><clipPath id="n"><path d="m25.93 61.69c-3.31-1.71-4.74-.21-4.75 3.13a9.78 9.78 0 0 0 -4.71-8.59c3.31 1.72 4.74.22 4.75-3.11a9.75 9.75 0 0 0 4.71 8.57"/></clipPath><path d="m76.32 27a6.55 6.55 0 0 0 -.84-3c-.61-1.29-1.48-2.57-2.22-3.85a6 6 0 0 0 -2.26-2.4l-24.38-14.09a12.56 12.56 0 0 0 -11.39 0l-24.23 14.09a5.72 5.72 0 0 0 -2.2 2.33l-2.29 4a5.74 5.74 0 0 0 -.79 2.92l-.08 28a12.54 12.54 0 0 0 5.7 9.86l24.4 14.14a6.17 6.17 0 0 0 3.2.72c1.46.06 2.7.06 4.16 0a6.24 6.24 0 0 0 3.19-.72l24.41-14.12a12.54 12.54 0 0 0 5.7-9.88zm-37.61 41.63c0 4.88-3.47 6.85-7.72 4.4l-14.89-8.59c-4.24-2.44-7.68-8.44-7.67-13.29l.05-17.15c0-4.88 3.48-6.85 7.72-4.41l14.89 8.6c4.24 2.45 7.69 8.42 7.68 13.29zm-5.29-34.53-14.88-8.6c-4.25-2.45-4.28-6.43-.06-8.89l14.79-8.61a16.89 16.89 0 0 1 15.35 0l14.89 8.59c4.25 2.46 4.26 6.44.05 8.89l-14.79 8.62a17 17 0 0 1 -15.35 0zm32.52 30.34-14.89 8.56c-4.25 2.45-7.71.48-7.73-4.4v-17.11a16.94 16.94 0 0 1 7.68-13.26l14.89-8.6c4.24-2.44 7.71-.47 7.72 4.41v17.11c.02 4.85-3.43 10.85-7.67 13.29z" fill="url(#a)"/><path d="m73.61 51.15c0 4.88-3.43 10.83-7.67 13.29l-14.89 8.56c-4.25 2.45-7.71.48-7.73-4.4v-17.11a16.94 16.94 0 0 1 7.68-13.26l14.89-8.6c4.24-2.44 7.71-.47 7.72 4.41z" fill="url(#b)" opacity=".15"/><path d="m76.32 27a6.43 6.43 0 0 0 -.84-3c-.61-1.29-1.48-2.57-2.22-3.85a6 6 0 0 0 -2.26-2.4l-24.38-14.09a12.56 12.56 0 0 0 -11.39 0l-24.23 14.09a5.76 5.76 0 0 0 -2.17 2.33c-.81 1.41-1.51 2.63-2.29 4a5.64 5.64 0 0 0 -.81 2.92l-.09 28a12.57 12.57 0 0 0 5.7 9.86l24.41 14.14a6.12 6.12 0 0 0 3.19.72c1.46.06 2.7.06 4.16 0a6.27 6.27 0 0 0 3.2-.72l24.41-14.12a12.56 12.56 0 0 0 5.69-9.88zm-37.6 41.63c0 4.88-3.48 6.85-7.73 4.4l-14.89-8.59c-4.24-2.44-7.68-8.44-7.67-13.29l.05-17.15c0-4.88 3.48-6.85 7.72-4.41l14.89 8.6a17 17 0 0 1 7.68 13.29zm-5.3-34.53-14.88-8.6c-4.25-2.45-4.27-6.43-.05-8.89l14.78-8.61a16.89 16.89 0 0 1 15.35 0l14.89 8.59c4.25 2.46 4.27 6.44.05 8.89l-14.79 8.62a17 17 0 0 1 -15.35 0zm32.52 30.34-14.89 8.56c-4.25 2.45-7.71.48-7.72-4.4v-17.11a17 17 0 0 1 7.67-13.26l14.89-8.6c4.25-2.44 7.71-.47 7.72 4.41v17.11c.02 4.85-3.43 10.85-7.67 13.29z" fill="url(#a)"/><path d="m73.61 51.15c0 4.88-3.43 10.83-7.67 13.29l-14.89 8.56c-4.25 2.45-7.71.48-7.72-4.4v-17.11a17 17 0 0 1 7.67-13.26l14.89-8.6c4.25-2.44 7.71-.47 7.72 4.41z" fill="url(#b)" opacity=".15"/><g clip-path="url(#c)"><g clip-path="url(#d)"><path d="m49.68 10.67a17.24 17.24 0 0 1 -17.24.33c5.52 3.53 4.5 7-.58 10a17.18 17.18 0 0 1 17.22-.37c-5.52-3.54-4.48-7 .6-10" fill="#010101"/></g><g clip-path="url(#e)"><path d="m48.83 22.76a12.19 12.19 0 0 1 -12.21.24c3.91 2.51 3.19 5-.42 7.08a12.21 12.21 0 0 1 12.22-.27c-3.92-2.5-3.19-5 .41-7.07" fill="#010101"/></g><g clip-path="url(#f)"><path d="m35.6 21.65a9.75 9.75 0 0 1 -9.78.21c3.13 2 2.55 4-.34 5.67a9.77 9.77 0 0 1 9.79-.21c-3.14-2-2.56-4 .33-5.67" fill="#010101"/></g></g><g clip-path="url(#g)"><g clip-path="url(#h)"><path d="m55.48 37a17.24 17.24 0 0 1 -8.3 15.11c5.82-3 8.34-.38 8.35 5.5a17.22 17.22 0 0 1 8.29-15.11c-5.82 3-8.33.37-8.34-5.5" fill="#010101"/></g><g clip-path="url(#i)"><path d="m65.53 43.79a12.22 12.22 0 0 1 -5.88 10.72c4.13-2.15 5.91-.28 5.92 3.89a12.16 12.16 0 0 1 5.88-10.7c-4.13 2.13-5.91.26-5.92-3.91" fill="#010101"/></g><g clip-path="url(#j)"><path d="m58 54.7a9.75 9.75 0 0 1 -4.71 8.58c3.26-1.71 4.71-.21 4.71 3.12a9.77 9.77 0 0 1 4.71-8.58c-3.33 1.72-4.71.18-4.71-3.12" fill="#010101"/></g></g><g clip-path="url(#k)"><g clip-path="url(#l)"><path d="m18.84 32.63c0 5.88-2.52 8.52-8.34 5.51a17.2 17.2 0 0 1 8.29 15.1c0-5.87 2.52-8.51 8.34-5.5a17.22 17.22 0 0 1 -8.29-15.11" fill="#010101"/></g><g clip-path="url(#m)"><path d="m28.83 51c0 4.17-1.79 6-5.92 3.9a12.19 12.19 0 0 1 5.88 10.71c0-4.17 1.79-6 5.92-3.9a12.19 12.19 0 0 1 -5.88-10.71" fill="#010101"/></g><g clip-path="url(#n)"><path d="m21.22 53.12c0 3.33-1.44 4.83-4.75 3.11a9.78 9.78 0 0 1 4.71 8.59c0-3.34 1.44-4.84 4.75-3.13a9.75 9.75 0 0 1 -4.71-8.57" fill="#010101"/></g></g></svg>