<svg xmlns="http://www.w3.org/2000/svg" viewBox="0 0 512 512">
  <!-- Icono de león adaptado de Flaticon -->
  <path fill="#3498db" d="M442.212,234.846c-6.655-1.851-13.575-2.216-20.344-1.078c2.227-3.487,4.063-7.211,5.401-11.111
    c9.364-27.267-5.363-56.957-32.633-66.324c-27.267-9.364-56.957,5.366-66.321,32.63c-2.557,7.434-3.466,15.089-2.953,22.546
    c-9.467-2.969-19.554-3.654-29.347-1.719c-2.557-11.79-9.588-22.481-20.417-29.274c-18.527-11.643-43.072-6.056-54.716,12.474
    c-11.64,18.527-6.053,43.072,12.474,54.716c0.294,0.184,0.591,0.36,0.889,0.538c-6.893,4.961-12.914,10.996-17.796,18.081
    c-7.774-5.742-16.911-9.369-26.692-10.249c-6.654-0.598-13.246,0.214-19.409,2.203c2.896-4.041,5.288-8.451,7.082-13.16
    c8.839-23.289-2.67-49.28-25.599-59.06c-0.366-0.156-0.731-0.305-1.101-0.448c-22.971-8.926-48.867,2.65-58.292,25.522
    c-8.652,21.029-0.451,44.894,18.659,55.908c-2.97,6.148-4.577,12.837-4.577,19.685c0,25.093,20.574,45.482,45.853,45.482
    c6.009,0,11.979-1.169,17.539-3.429c7.453,28.21,33.121,49.089,63.909,49.089c36.719,0,66.541-29.82,66.541-66.542
    c0-13.986-4.299-27.359-12.257-38.698c2.61-2.766,5.495-5.305,8.659-7.567c9.207,14.715,24.586,24.65,42.339,26.673
    c30.759,3.5,58.648-18.371,62.149-49.131c0.8-7.047-0.194-13.983-2.709-20.399c6.005,1.691,12.383,2.065,18.65,0.957
    c19.783-3.476,33.132-22.23,29.661-41.999C480.738,244.724,461.975,231.371,442.212,234.846z M346.031,345.589
    c-26.014-2.959-45.025-26.404-42.062-52.421c0.182-1.601,0.446-3.176,0.78-4.723c0.865-3.991-1.675-7.926-5.667-8.79
    c-3.992-0.864-7.927,1.675-8.79,5.666c-0.422,1.949-0.747,3.934-0.977,5.938c-0.16,1.409-0.266,2.823-0.319,4.242
    c-0.532,10.681,1.773,21.004,6.345,30.205c-3.455,4.451-7.454,8.523-11.953,12.091c-9.976,7.903-21.75,13.239-34.268,15.47
    c-3.205,0.571-5.785,2.963-6.594,6.104c-0.81,3.143,0.41,6.462,3.114,8.496c1.939,1.459,4.696,1.972,7.219,1.121
    c14.632-2.611,28.43-8.865,39.937-18.111c5.538-4.421,10.459-9.439,14.663-14.94c8.297,9.13,19.591,15.526,32.572,17.016
    c3.198,0.364,6.085-1.937,6.449-5.136C351.531,348.842,349.227,345.954,346.031,345.589z M118.095,225.997
    c-2.532-2.75-6.803-2.927-9.553-0.395c-7.515,6.92-9.27,17.328-4.76,25.89c-3.066,0.656-6.193,0.999-9.337,0.999
    c-9.741,0-19.244-3.247-26.986-9.251c-2.755-2.139-6.684-2.056-9.339,0.192c-2.656,2.247-3.267,6.108-1.426,9.091
    c12.959,21.022,40.414,27.524,61.418,14.41c1.789-1.118,3.491-2.343,5.095-3.661c2.678,2.278,5.73,4.209,9.071,5.7
    c3.685,1.644,8.012,0.001,9.657-3.685c1.644-3.685,0-8.011-3.686-9.656c-4.171-1.86-7.646-4.879-10.055-8.53
    C124.074,240.254,122.307,232.748,118.095,225.997z M256,165.667c8.284,0,15,6.716,15,15c0,8.284-6.715,15-15,15
    c-8.284,0-15-6.716-15-15C241,172.383,247.716,165.667,256,165.667z"/>
</svg>